<?xml version="1.0" encoding="utf-8"?>
<!-- Generator: Adobe Illustrator 25.0.1, SVG Export Plug-In . SVG Version: 6.00 Build 0)  -->
<svg version="1.1" id="圖層_1" xmlns="http://www.w3.org/2000/svg" xmlns:xlink="http://www.w3.org/1999/xlink" x="0px" y="0px"
	 viewBox="0 0 32 32" style="enable-background:new 0 0 32 32;" xml:space="preserve">
<style type="text/css">
	.st0{fill:#666666;}
</style>
<g id="hand_care">
	<path class="st0" d="M16.7,11.7l4.8,4.8c0.6,0.6,1.6,0.6,2.2,0l0,0l4.7-4.8c0.6-0.6,1.1-1.4,1.4-2.3c0.7-2.1,0.2-4.3-1.4-5.9
		c-1.5-1.5-3.8-2.1-5.9-1.3C22,2,21.3,1.9,20.7,1.9l0,0c-1.5,0-2.9,0.6-4,1.7c-1.5,1.5-2,3.8-1.4,5.9C15.6,10.3,16.1,11,16.7,11.7z"
		/>
	<path class="st0" d="M10.3,18.4c-0.4-0.6-1.1-1-1.8-1.2L3,16.4c-0.3,0-0.5,0-0.8,0.2C2,16.8,1.9,17,1.9,17.3v11.3
		c0,0.5,0.4,0.9,0.9,0.9H7c1.4-0.1,2.6-1.1,2.8-2.5l1.1-6C11,20.1,10.8,19.1,10.3,18.4z"/>
	<path class="st0" d="M30,23.5c-0.4-1.1-1.6-1.7-2.8-1.5l-3.7,1l0,0l0,0v-0.1c0-0.1,0-0.2,0-0.3c0-0.1,0-0.1,0-0.2s0-0.1,0-0.2V22
		l0,0c-0.1-0.1-0.1-0.2-0.2-0.4l0,0c-0.1-0.1-0.2-0.2-0.2-0.3c-0.4-0.4-0.9-0.7-1.4-0.7h-0.1h-0.2h-0.8c-0.2,0-0.4,0-0.7,0h-0.1
		c-0.2,0-0.4,0-0.6-0.1c-0.6-0.1-1.2-0.3-1.8-0.6l-1.8-0.8c-0.5-0.3-1.1-0.4-1.7-0.3l-2.1,0.5c0.2,0.6,0.2,1.3,0.1,1.9l-1.1,6
		c0,0.1,0,0.2-0.1,0.3l5.9,2.3c0.7,0.3,1.4,0.4,2.1,0.4s1.5-0.1,2.2-0.4l7.8-3.2C29.8,26.1,30.4,24.7,30,23.5z"/>
</g>
</svg>
