<?xml version="1.0" encoding="utf-8"?>
<!-- Generator: Adobe Illustrator 25.0.1, SVG Export Plug-In . SVG Version: 6.00 Build 0)  -->
<svg version="1.1" id="Layer_1" xmlns="http://www.w3.org/2000/svg" xmlns:xlink="http://www.w3.org/1999/xlink" x="0px" y="0px"
	 viewBox="0 0 500 500" style="enable-background:new 0 0 500 500;" xml:space="preserve">
<style type="text/css">
	.st0{fill-rule:evenodd;clip-rule:evenodd;fill:#666666;}
</style>
<path class="st0" d="M63.5,405.4c0,17.2,13.9,31.1,31.1,31.1h310.9c17.2,0,31.1-13.9,31.1-31.1V172.2c0-17.2-13.9-31.1-31.1-31.1
	h-62.1V94.6c0-17.2-13.9-31.1-31.1-31.1H187.9c-17.2,0-31.1,13.9-31.1,31.1v46.6H94.7c-17.2,0-31.1,13.9-31.1,31.1L63.5,405.4
	L63.5,405.4z M304.5,141.2H195.7v-21.7c0-9.5,7.6-17.1,17.1-17.1h74.6c9.5,0,17.1,7.6,17.1,17.1V141.2L304.5,141.2z M174,250h37.3
	v-37.3c0-9.5,7.6-17.1,17.1-17.1h43.5c9.5,0,17.1,7.6,17.1,17.1V250h37.2c9.5,0,17.1,7.6,17.1,17.1v43.5c0,9.5-7.6,17.1-17.1,17.1
	h-37.3V365c0,9.5-7.6,17.1-17.1,17.1h-43.5c-9.5,0-17.1-7.6-17.1-17.1v-37.3H174c-9.5,0-17.1-7.6-17.1-17.1v-43.5
	C156.8,257.6,164.5,250,174,250z"/>
</svg>
