<?xml version="1.0" encoding="utf-8"?>
<!-- Generator: Adobe Illustrator 25.0.1, SVG Export Plug-In . SVG Version: 6.00 Build 0)  -->
<svg version="1.1" id="圖層_1" xmlns="http://www.w3.org/2000/svg" xmlns:xlink="http://www.w3.org/1999/xlink" x="0px" y="0px"
	 viewBox="0 0 32 32" style="enable-background:new 0 0 32 32;" xml:space="preserve">
<style type="text/css">
	.st0{fill:#666666;}
</style>
<g id="chemical">
	<path class="st0" d="M29,27.8l-4.4-7.5l-3.4-5.7V3.8c0-0.5-0.4-0.9-0.9-0.9h-8.7c-0.5,0-0.9,0.4-0.9,0.9v10.7L8,19.3l0,0l-5,8.5
		c-0.2,0.4-0.1,1,0.3,1.2c0.1,0.1,0.3,0.1,0.4,0.1h24.4c0.5,0,0.9-0.4,0.9-0.9C29.1,28.1,29,27.9,29,27.8z M5.3,27.3l3.9-6.7
		c2.7-0.1,5.4,0.1,8,0.7c2,0.5,4.1,0.6,6.2,0.3l3.3,5.7H5.3z"/>
</g>
</svg>
