<?xml version="1.0" encoding="utf-8"?>
<!-- Generator: Adobe Illustrator 25.0.0, SVG Export Plug-In . SVG Version: 6.00 Build 0)  -->
<svg version="1.1"
	 id="svg8" xmlns:cc="http://creativecommons.org/ns#" xmlns:dc="http://purl.org/dc/elements/1.1/" xmlns:inkscape="http://www.inkscape.org/namespaces/inkscape" xmlns:rdf="http://www.w3.org/1999/02/22-rdf-syntax-ns#" xmlns:sodipodi="http://sodipodi.sourceforge.net/DTD/sodipodi-0.dtd" xmlns:svg="http://www.w3.org/2000/svg"
	 xmlns="http://www.w3.org/2000/svg" xmlns:xlink="http://www.w3.org/1999/xlink" x="0px" y="0px" viewBox="0 0 32 32"
	 style="enable-background:new 0 0 32 32;" xml:space="preserve">
<style type="text/css">
	.st0{fill:#FFFFFF;}
</style>
<g id="layer1" transform="translate(0,-288.53332)">
	<path class="st0" d="M16,317.9c-6.4,0-11.5-5.2-11.5-11.5c0-6,9.3-13.9,10.3-14.8l1.2-1l1.2,1c1.1,0.9,10.3,8.7,10.3,14.8
		C27.5,312.7,22.4,317.9,16,317.9z M16,295.6c-3.4,3.1-7.7,7.9-7.7,10.8c0,4.3,3.5,7.7,7.7,7.7c4.3,0,7.7-3.5,7.7-7.7
		C23.7,303.5,19.4,298.6,16,295.6z"/>
	<path class="st0" d="M17.7,312.9l-0.9,0c-4.3-0.2-6.3-3.8-6.8-5.7l-0.2-0.9l1.8-0.5l0.2,0.9c0.1,0.2,1.2,4.1,5.1,4.3l0.9,0
		L17.7,312.9z"/>
</g>
</svg>
