<?xml version="1.0" encoding="utf-8"?>
<!-- Generator: Adobe Illustrator 25.0.1, SVG Export Plug-In . SVG Version: 6.00 Build 0)  -->
<svg version="1.1" id="圖層_1" xmlns="http://www.w3.org/2000/svg" xmlns:xlink="http://www.w3.org/1999/xlink" x="0px" y="0px"
	 viewBox="0 0 32 32" style="enable-background:new 0 0 32 32;" xml:space="preserve">
<style type="text/css">
	.st0{fill:#666666;}
</style>
<g id="medicine">
	<path class="st0" d="M23.5,9.5v-1h-15v1c-1.6,0.2-2.8,1.6-2.8,3.2v14.9c0,1.3,1,2.3,2.3,2.3h15.8c1.3,0,2.3-1,2.3-2.3V12.7
		C26.2,11.1,25.1,9.8,23.5,9.5z M24.4,23.5H7.6V16h16.8V23.5z"/>
	<path class="st0" d="M7.1,2h17.7c0.8,0,1.4,0.6,1.4,1.4v2.8c0,0.8-0.6,1.4-1.4,1.4H7.1C6.4,7.6,5.8,7,5.8,6.2V3.4
		C5.8,2.6,6.4,2,7.1,2z"/>
	<path class="st0" d="M14.1,20.7H15v0.9c0,0.5,0.4,0.9,0.9,0.9s0.9-0.4,0.9-0.9v-0.9h0.9c0.5,0,0.9-0.4,0.9-0.9s-0.4-0.9-0.9-0.9
		h-0.9V18c0-0.5-0.4-0.9-0.9-0.9S15,17.5,15,18v0.9h-0.9c-0.5,0-0.9,0.4-0.9,0.9C13.2,20.2,13.6,20.7,14.1,20.7z"/>
</g>
</svg>
