<?xml version="1.0" encoding="utf-8"?>
<!-- Generator: Adobe Illustrator 25.0.1, SVG Export Plug-In . SVG Version: 6.00 Build 0)  -->
<svg version="1.1" id="Layer_1" xmlns="http://www.w3.org/2000/svg" xmlns:xlink="http://www.w3.org/1999/xlink" x="0px" y="0px"
	 viewBox="0 0 500 500" style="enable-background:new 0 0 500 500;" xml:space="preserve">
<style type="text/css">
	.st0{fill-rule:evenodd;clip-rule:evenodd;fill:#666666;}
</style>
<path class="st0" d="M31.9,431.7c0,20.1,16.3,36.3,36.3,36.3h363.4c20.1,0,36.3-16.3,36.3-36.3V159.1c0-20.1-16.3-36.3-36.3-36.3
	H359V68.3c0-20.1-16.3-36.3-36.3-36.3H177.3C157.2,32,141,48.2,141,68.3v54.5H68.3c-20.1,0-36.3,16.3-36.3,36.3L31.9,431.7
	L31.9,431.7z M313.6,122.8H186.4V97.4c0-11.1,8.9-20,20-20h87.2c11.1,0,20,8.9,20,20L313.6,122.8L313.6,122.8z M161,250h43.6v-43.6
	c0-11.1,8.9-20,20-20h50.9c11.1,0,20,8.9,20,20V250H339c11.1,0,20,8.9,20,20v50.9c0,11.1-8.9,20-20,20h-43.6v43.6
	c0,11.1-8.9,20-20,20h-50.9c-11.1,0-20-8.9-20-20v-43.6H161c-11.1,0-20-8.9-20-20V270C141,258.9,149.9,250,161,250z"/>
</svg>
