<?xml version="1.0" encoding="utf-8"?>
<!-- Generator: Adobe Illustrator 25.0.1, SVG Export Plug-In . SVG Version: 6.00 Build 0)  -->
<svg version="1.1" id="Layer_1" xmlns="http://www.w3.org/2000/svg" xmlns:xlink="http://www.w3.org/1999/xlink" x="0px" y="0px"
	 viewBox="0 0 64 64" style="enable-background:new 0 0 64 64;" xml:space="preserve">
<style type="text/css">
	.st0{fill:#666666;}
</style>
<g>
	<path class="st0" d="M51.9,7.7C46.2,3,37.8,3.8,33.1,9.6L10.2,37.5c-4.7,5.7-3.9,14.2,1.9,18.8c5.7,4.7,14.2,3.9,18.8-1.9l22.9-28
		C58.5,20.8,57.6,12.3,51.9,7.7z M29.6,51.7c-3.6,4.4-10,5.1-14.4,1.5s-5.1-10-1.5-14.4l3.9-4.8c0.1-0.1,0.2-0.2,0.3-0.3l6.1-7.4
		l16,12.6L29.6,51.7z M51,25.2L47.1,30c-0.1,0.1-0.2,0.2-0.2,0.3l-4.9,6L26,23.7l9.2-11.4c3.6-4.4,10-5.1,14.4-1.5
		S54.6,20.9,51,25.2z"/>
	<g>
		<path class="st0" d="M22.1,50.7c-1.5,0-3-0.4-4.3-1.3c0.3,0,0.8,0,1.1,0c2.5,0,6-0.4,9.6-2.2L27.8,48
			C26.5,49.8,24.3,50.7,22.1,50.7L22.1,50.7z"/>
		<path class="st0" d="M30.4,45.3c-0.2,0-0.3,0.1-0.3,0.1l0,0c-4,2.7-8.3,3.3-11.2,3.3c-1.1,0-2.1-0.1-2.7-0.2l0,0
			c0,0-0.7,0.1-0.3,0.6c0.2,0.2,0.4,0.4,0.7,0.6c1.6,1.4,3.6,2,5.5,2c2.4,0,4.8-1,6.4-3l2.1-2.7c0.2-0.2,0.1-0.5-0.1-0.6
			C30.5,45.4,30.4,45.3,30.4,45.3L30.4,45.3z"/>
	</g>
</g>
</svg>
