<?xml version="1.0" encoding="utf-8"?>
<!-- Generator: Adobe Illustrator 25.4.1, SVG Export Plug-In . SVG Version: 6.00 Build 0)  -->
<svg version="1.1" id="圖層_1" xmlns:sketch="http://www.bohemiancoding.com/sketch/ns"
	 xmlns="http://www.w3.org/2000/svg" xmlns:xlink="http://www.w3.org/1999/xlink" x="0px" y="0px" viewBox="0 0 24 24"
	 style="enable-background:new 0 0 24 24;" xml:space="preserve">
<style type="text/css">
	.st0{fill-rule:evenodd;clip-rule:evenodd;fill:#FFFFFF;}
</style>
<desc></desc>
<g id="Page-1">
	<g id="Icons-Device" transform="translate(-210.000000, -124.000000)">
		<g id="screen-rotation" transform="translate(210.000000, 124.000000)">
			<path id="Shape" class="st0" d="M16.5,2.5c3.3,1.5,5.6,4.7,6,8.5H24C23.4,4.8,18.3,0,12,0h-0.7l3.8,3.8L16.5,2.5L16.5,2.5z
				 M10.2,1.7c-0.6-0.6-1.5-0.6-2.1,0L1.7,8.1c-0.6,0.6-0.6,1.5,0,2.1l12,12c0.6,0.6,1.5,0.6,2.1,0l6.4-6.4c0.6-0.6,0.6-1.5,0-2.1
				L10.2,1.7L10.2,1.7z M14.8,21.2l-12-12l6.4-6.4l12,12L14.8,21.2L14.8,21.2z M7.5,21.5c-3.3-1.5-5.6-4.7-6-8.5H0.1
				C0.6,19.2,5.7,24,12,24h0.7l-3.8-3.8L7.5,21.5L7.5,21.5z"/>
		</g>
	</g>
</g>
<circle class="st0" cx="16.7" cy="16.6" r="1.1"/>
</svg>
