<?xml version="1.0" encoding="utf-8"?>
<!-- Generator: Adobe Illustrator 25.0.0, SVG Export Plug-In . SVG Version: 6.00 Build 0)  -->
<svg version="1.1" id="圖層_1" xmlns="http://www.w3.org/2000/svg" xmlns:xlink="http://www.w3.org/1999/xlink" x="0px" y="0px"
	 viewBox="0 0 96 96" style="enable-background:new 0 0 96 96;" xml:space="preserve">
<style type="text/css">
	.st0{display:none;}
</style>
<g id="banana">
</g>
<g id="Layer_12">
</g>
<g id="grape">
</g>
<g id="assasin">
</g>
<g id="gold">
</g>
<g id="mage_ass">
</g>
<g id="fighter">
</g>
<g id="SUPPORT">
</g>
<g id="marksman">
</g>
<g id="JUNGLE">
</g>
<g id="TANK">
</g>
<g id="creditcard" class="st0">
</g>
<g id="CAKE" class="st0">
</g>
<g id="TOPI" class="st0">
</g>
<g id="SPATU" class="st0">
</g>
<g id="SETTING" class="st0">
</g>
<g id="CART" class="st0">
</g>
<g id="k3" class="st0">
</g>
<g id="computer" class="st0">
</g>
<g id="phone" class="st0">
</g>
<g id="location" class="st0">
</g>
<g id="koper">
	<g id="Layer_29">
	</g>
	<path d="M76.7,79.1c-1.6,1.5-3.6,2.5-5.7,2.9l0,0l0,0c-0.4,0.1-1,0.1-1.4,0.1c-0.1,0-0.4,0-0.8,0l0,0h-0.7
		c-12.8,0.4-25.3-4.2-35-13.4C22.3,58.6,15.9,44,15.3,28.7c0-0.4,0-0.8,0-1.1l0,0l0,0c0-0.1,0-0.3,0-0.4c0-0.4,0-0.8,0-1.4v-0.1
		c0.4-6.6,5.3-11.6,11.3-11.8c0.8,0,1.6,0,2.3,0.1c1.1,0.3,2.2,0.7,3.3,1.2l3.4,20c-1.8,2.2-4.2,3.7-6.8,4.1c0,0,0,0-0.1,0
		c0,0,0,0-0.1,0c0,0-0.1,0-0.1,0.1c-0.1,0-0.1,0.1-0.3,0.1c-0.1,0-0.1,0.1-0.1,0.1l-0.1,0.1c0,0.1-0.1,0.1-0.1,0.3
		c0,0.1,0,0.1-0.1,0.3c0,0.1,0,0.1,0,0.3v0.1c0,0,0,0,0,0.1c0,0,0,0,0,0.1c4.5,13.8,14.9,24.3,28,28.1h0.1c0,0,0,0,0.1,0H56l0,0l0,0
		l0,0l0,0c0.1,0,0.3,0,0.4-0.1c0,0,0.1,0,0.1-0.1c0.1,0,0.1-0.1,0.3-0.1l0.1-0.1c0-0.1,0.1-0.1,0.1-0.3c0,0,0-0.1,0.1-0.1v-0.1V68
		v-0.1c0.3-2.9,1.5-5.6,3.4-7.8l18.4,2.6c0.5,1,1,2,1.2,3.1V66c0.1,0.5,0.3,1.2,0.3,1.8c0,0.3,0,0.5,0,0.8
		C80.9,72.9,79.3,76.6,76.7,79.1z"/>
</g>
<g id="guide" class="st0">
</g>
<g id="MAGICAL">
</g>
<g id="phisical">
</g>
<g id="mango">
</g>
<g id="orange">
</g>
</svg>
