<?xml version="1.0" encoding="utf-8"?>
<!-- Generator: Adobe Illustrator 25.4.1, SVG Export Plug-In . SVG Version: 6.00 Build 0)  -->
<svg version="1.1" id="Layer_1" xmlns="http://www.w3.org/2000/svg" xmlns:xlink="http://www.w3.org/1999/xlink" x="0px" y="0px"
	 viewBox="0 0 24 24" style="enable-background:new 0 0 24 24;" xml:space="preserve">
<style type="text/css">
	.st0{fill:#FFFFFF;}
</style>
<path d="M22.1,6.6c-0.2-0.1-0.4-0.1-0.4,0L18.5,9V8c0-1.4-1.2-2.6-2.6-2.6H4.3C2.8,5.3,1.7,6.5,1.7,8V16c0,1.4,1.2,2.6,2.6,2.6h11.6
	c1.4,0,2.6-1.2,2.6-2.6V15l3.1,2.4c0.1,0.1,0.3,0.1,0.4,0c0.2-0.1,0.3-0.2,0.3-0.4V7C22.3,6.8,22.3,6.7,22.1,6.6z"/>
<polyline class="st0" points="8.8,9.4 13,12 8.8,14.6 "/>
</svg>
