<?xml version="1.0" encoding="utf-8"?>
<!-- Generator: Adobe Illustrator 25.2.3, SVG Export Plug-In . SVG Version: 6.00 Build 0)  -->
<svg version="1.1" id="圖層_1" xmlns="http://www.w3.org/2000/svg" xmlns:xlink="http://www.w3.org/1999/xlink" x="0px" y="0px"
	 viewBox="0 0 491.5 491.5" style="enable-background:new 0 0 491.5 491.5;" xml:space="preserve">
<style type="text/css">
	.st0{fill:none;}
</style>
<rect class="st0" width="491.5" height="491.5"/>
<g>
	<rect x="217.9" y="236.3" width="53.7" height="53.7"/>
	<rect x="302.1" y="236.3" width="53.7" height="53.7"/>
	<rect x="133.8" y="318" width="53.7" height="53.7"/>
	<rect x="217.9" y="318" width="53.7" height="53.7"/>
	<rect x="302.1" y="318" width="53.7" height="53.7"/>
	<path d="M162,136.6L162,136.6c-13.2,0-24-10.8-24-24V58.4c0-13.2,10.8-24,24-24l0,0c13.2,0,24,10.8,24,24v54.2
		C186,125.7,175.2,136.6,162,136.6z"/>
	<path d="M389.1,85.4h-27.3v32.8c0,20.2-16.3,36.8-36.2,36.8h-9.6c-19.9,0-36.2-16.5-36.2-36.8V85.4h-74.7v32.8
		c0,20.2-16.3,36.8-36.2,36.8h-9.6c-19.9,0-36.2-16.5-36.2-36.8V85.4h-20.9c-22.4,0-40.7,18.6-40.7,41.3v289.1
		c0,22.7,18.3,41.3,40.7,41.3h286.8c22.4,0,40.7-18.6,40.7-41.3V126.7C429.8,104,411.5,85.4,389.1,85.4z M382.1,376.9
		c0,14.1-11.4,25.7-25.3,25.7H134.7c-13.9,0-25.3-11.6-25.3-25.7V231.1c0-14.1,11.4-26.7,25.3-26.7h222.2
		c13.9,0,25.3,12.6,25.3,26.7V376.9z"/>
	<path d="M321,136.6L321,136.6c-13.2,0-24-10.8-24-24V58.4c0-13.2,10.8-24,24-24l0,0c13.2,0,24,10.8,24,24v54.2
		C345,125.7,334.2,136.6,321,136.6z"/>
</g>
</svg>
