<?xml version="1.0" encoding="utf-8"?>
<!-- Generator: Adobe Illustrator 26.0.1, SVG Export Plug-In . SVG Version: 6.00 Build 0)  -->
<svg version="1.1" id="圖層_1" xmlns="http://www.w3.org/2000/svg" xmlns:xlink="http://www.w3.org/1999/xlink" x="0px" y="0px"
	 viewBox="0 0 512 512" style="enable-background:new 0 0 512 512;" xml:space="preserve">
<polygon points="301,143.4 376,111.3 431.1,134.9 467.1,120 374,81.5 162.9,168.8 256,207.3 350.5,168.2 "/>
<path d="M353.1,72.8l-94-38.9c-2-0.8-4.2-0.8-6.1,0L44.9,120l97.1,40.2L353.1,72.8z"/>
<polygon points="424,155.1 376,175 376,260.5 424,242.5 "/>
<polygon points="376,128.7 339,144.6 370.1,160.1 410.4,143.4 "/>
<path d="M440,148.5v105l-80,30V181.6l-96,39.7V484l211.1-88.5c3-1.2,4.9-4.2,4.9-7.4V132L440,148.5z"/>
<path d="M32,132V388c0,3.2,1.9,6.1,4.9,7.4L248,484V221.3L32,132z"/>
</svg>
